<?xml version="1.0" standalone="no"?>
<!DOCTYPE svg PUBLIC "-//W3C//DTD SVG 20010904//EN"
 "http://www.w3.org/TR/2001/REC-SVG-20010904/DTD/svg10.dtd">
<svg version="1.0" xmlns="http://www.w3.org/2000/svg"
 width="512.000000pt" height="512.000000pt" viewBox="0 0 512.000000 512.000000"
 preserveAspectRatio="xMidYMid meet">

<g transform="translate(0.000000,512.000000) scale(0.100000,-0.100000)"
fill="#000000" stroke="none">
<path d="M925 4781 c-48 -22 -69 -44 -90 -94 -13 -30 -15 -98 -15 -419 l-1
-383 -380 -260 c-209 -143 -392 -273 -407 -288 l-27 -28 -3 -1412 c-1 -777 0
-1426 3 -1444 8 -43 50 -92 100 -114 38 -18 134 -19 2482 -19 1528 0 2451 4
2467 10 14 5 33 21 43 37 17 26 18 100 21 1490 1 960 -1 1470 -8 1482 -5 11
-162 126 -347 257 -186 131 -355 251 -375 267 l-38 29 0 397 c0 396 0 398 -23
432 -12 19 -42 44 -67 57 l-44 22 -1626 0 c-1555 0 -1627 -1 -1665 -19z m3193
-1158 l-3 -937 -760 -573 c-418 -315 -764 -571 -770 -569 -10 3 -190 138
-1090 818 l-430 324 -3 937 -2 937 1530 0 1530 0 -2 -937z m-3300 -566 l-3
-184 -242 186 c-133 102 -242 191 -241 196 0 6 109 85 242 178 l241 167 3
-179 c1 -99 1 -263 0 -364z m3792 370 c129 -88 239 -163 243 -167 7 -6 -460
-365 -490 -377 -10 -4 -13 71 -13 357 0 286 3 360 13 354 6 -4 118 -79 247
-167z m-3447 -1116 c395 -299 715 -547 710 -551 -7 -7 -1539 -1041 -1605
-1084 l-28 -18 0 1177 0 1177 103 -79 c56 -44 425 -324 820 -622z m3715 -1036
l-3 -574 -413 277 c-226 152 -585 393 -797 535 -212 143 -385 262 -385 265 1
4 359 282 798 617 l797 611 3 -579 c1 -318 1 -837 0 -1152z m-1008 -180 l783
-530 -1032 -3 c-567 -1 -1495 -1 -2062 0 l-1032 3 777 523 c476 320 781 520
789 515 7 -4 98 -72 202 -152 225 -171 240 -181 282 -181 33 0 44 8 353 247
80 62 148 111 151 110 3 -1 358 -240 789 -532z"/>
<path d="M1588 4015 c-53 -29 -72 -99 -43 -155 31 -60 30 -60 368 -60 l309 0
34 34 c29 29 34 41 34 80 0 36 -6 52 -29 78 l-29 33 -309 2 c-259 2 -312 0
-335 -12z"/>
<path d="M1588 3484 c-53 -28 -72 -98 -43 -154 33 -64 -38 -60 1038 -60 1085
0 1024 -4 1053 65 18 43 18 59 -1 99 -34 70 35 66 -1047 66 -841 -1 -977 -3
-1000 -16z"/>
<path d="M1588 2954 c-53 -28 -72 -98 -43 -154 33 -64 -38 -60 1038 -60 1085
0 1024 -4 1053 65 18 44 18 59 -2 101 -32 68 28 64 -1046 64 -841 -1 -977 -3
-1000 -16z"/>
</g>
</svg>
