<?xml version="1.0" standalone="no"?>
<!DOCTYPE svg PUBLIC "-//W3C//DTD SVG 20010904//EN"
 "http://www.w3.org/TR/2001/REC-SVG-20010904/DTD/svg10.dtd">
<svg version="1.0" xmlns="http://www.w3.org/2000/svg"
 width="512.000000pt" height="512.000000pt" viewBox="0 0 512.000000 512.000000"
 preserveAspectRatio="xMidYMid meet">

<g transform="translate(0.000000,512.000000) scale(0.100000,-0.100000)"
fill="#000000" stroke="none">
<path d="M840 5111 c-92 -30 -172 -98 -212 -179 -19 -40 -23 -63 -23 -147 0
-85 4 -107 23 -143 13 -24 292 -366 620 -760 328 -395 604 -726 612 -736 13
-17 16 -197 20 -1435 l5 -1416 32 -67 c40 -85 106 -151 191 -191 60 -29 77
-32 157 -32 76 0 99 4 147 27 31 14 77 45 102 68 l46 43 46 -43 c25 -23 71
-54 102 -68 48 -23 71 -27 147 -27 77 0 98 4 148 27 79 37 128 78 170 141 71
107 67 7 67 1543 0 772 4 1393 9 1406 5 13 283 353 619 756 668 801 652 779
652 907 0 150 -94 276 -240 319 -97 29 -195 14 -279 -42 -25 -17 -211 -230
-484 -558 -399 -476 -488 -574 -520 -574 -5 0 2 15 17 33 114 140 152 281 143
522 -9 222 -50 328 -177 455 -86 87 -162 131 -276 160 -141 36 -295 18 -427
-52 -91 -48 -204 -165 -249 -258 -55 -113 -72 -212 -65 -394 5 -162 17 -218
67 -317 16 -30 45 -75 64 -98 20 -24 34 -46 32 -49 -19 -18 -119 91 -516 565
-245 292 -456 540 -470 551 -60 47 -114 65 -195 68 -44 2 -91 0 -105 -5z m153
-175 c43 -19 50 -26 492 -556 213 -256 408 -486 433 -512 66 -69 126 -97 231
-111 l90 -11 31 -127 32 -128 -42 -324 c-27 -202 -40 -338 -36 -360 10 -53 42
-85 163 -165 162 -107 188 -107 345 -3 116 76 154 115 164 168 4 22 -9 158
-36 360 l-42 324 32 128 31 127 88 11 c107 14 168 43 232 110 25 26 221 257
434 513 440 527 456 546 503 561 134 44 262 -106 195 -228 -10 -18 -288 -356
-618 -753 -330 -396 -609 -738 -620 -758 -20 -36 -20 -61 -25 -1457 -6 -1566
0 -1442 -67 -1509 -97 -99 -240 -83 -325 37 l-23 32 -5 718 -5 719 -28 24
c-36 31 -78 31 -114 0 l-28 -24 -5 -719 -5 -718 -23 -32 c-85 -120 -228 -136
-325 -37 -67 67 -61 -57 -67 1509 -5 1396 -5 1421 -25 1457 -11 20 -290 362
-620 758 -330 397 -608 736 -618 753 -25 44 -19 122 13 167 25 36 89 69 133
70 15 0 42 -6 60 -14z m1672 -1 c161 -42 284 -175 314 -339 14 -74 14 -231 1
-311 -22 -132 -115 -257 -239 -318 -62 -30 -71 -32 -181 -32 -110 0 -119 2
-181 32 -125 62 -217 184 -239 318 -13 80 -13 237 1 311 45 245 286 400 524
339z m35 -1197 c0 -7 -9 -44 -18 -83 l-18 -70 -104 0 -104 0 -18 70 c-9 39
-18 76 -18 83 0 9 35 12 140 12 105 0 140 -3 140 -12z m-11 -585 c18 -142 35
-269 38 -283 4 -23 -5 -32 -81 -83 l-86 -57 -86 57 c-81 54 -86 59 -81 88 3
16 19 144 38 283 l32 252 97 0 96 0 33 -257z"/>
</g>
</svg>
